<svg xmlns="http://www.w3.org/2000/svg" width="600" height="350" viewBox="0 0 600 350"><defs><linearGradient id="bg" x2="1" y2="1"><stop stop-color="#dce8d8"/><stop offset="1" stop-color="#c2d8c5"/></linearGradient></defs><rect width="600" height="350" fill="url(#bg)"/><circle cx="538" cy="30" r="147" fill="#eaf1e4" opacity=".7"/><circle cx="48" cy="323" r="100" fill="#b5cebb" opacity=".6"/><ellipse cx="300" cy="302" rx="238" ry="11" fill="#7ea087" opacity=".2"/><rect x="74" y="53" width="245" height="235" rx="18" fill="#fff"/><rect x="94" y="73" width="205" height="55" rx="8" fill="#e8efe5"/><path d="M111 103h30l10-17 18 31 12-14h32" fill="none" stroke="#27765f" stroke-width="5"/><rect x="233" y="87" width="48" height="8" rx="4" fill="#b7cabb"/><rect x="233" y="104" width="35" height="6" rx="3" fill="#b7cabb"/><path d="M95 271v-61q0-42 44-42t44 42v61" fill="#15594e"/><circle cx="139" cy="151" r="29" fill="#d49a73"/><path d="M110 146q-6-42 28-39 31 0 31 42l-15-12-38 8" fill="#193d36"/><path d="M124 183v30q15 18 30 0v-30" fill="none" stroke="#d8efb1" stroke-width="5"/><circle cx="139" cy="224" r="7" fill="#d8efb1"/><path d="M190 287v-51q0-35 40-35t40 35v51" fill="#bbd89b"/><circle cx="230" cy="181" r="25" fill="#bf825f"/><path d="M207 179q-6-34 23-33 28 0 25 32l-20-12z" fill="#263e37"/><path d="M253 234l57 22" stroke="#bf825f" stroke-width="15" stroke-linecap="round"/><rect x="315" y="170" width="157" height="105" rx="10" fill="#fff"/><rect x="330" y="185" width="63" height="65" rx="5" fill="#e0edda"/><path d="M349 218h25m-13-13v26" stroke="#28715c" stroke-width="6"/><path d="M407 195h46m-46 19h36m-36 19h40" stroke="#a5bbae" stroke-width="5" stroke-linecap="round"/><path d="M304 293h197" stroke="#426d5f" stroke-width="10" stroke-linecap="round"/></svg>
